<?xml version="1.0" encoding="UTF-8" standalone="no"?>
<!-- Created with Inkscape (http://www.inkscape.org/) -->

<svg
   width="300mm"
   height="300mm"
   viewBox="0 0 300 300"
   version="1.1"
   id="svg10334"
   inkscape:version="1.1 (c68e22c387, 2021-05-23)"
   sodipodi:docname="btc-coin.svg"
   xmlns:inkscape="http://www.inkscape.org/namespaces/inkscape"
   xmlns:sodipodi="http://sodipodi.sourceforge.net/DTD/sodipodi-0.dtd"
   xmlns:xlink="http://www.w3.org/1999/xlink"
   xmlns="http://www.w3.org/2000/svg"
   xmlns:svg="http://www.w3.org/2000/svg">
  <sodipodi:namedview
     id="namedview10336"
     pagecolor="#ffffff"
     bordercolor="#666666"
     borderopacity="1.0"
     inkscape:pageshadow="2"
     inkscape:pageopacity="0.0"
     inkscape:pagecheckerboard="0"
     inkscape:document-units="mm"
     showgrid="false"
     showguides="true"
     inkscape:guide-bbox="true"
     inkscape:zoom="0.30155373"
     inkscape:cx="252.02805"
     inkscape:cy="333.27394"
     inkscape:window-width="1726"
     inkscape:window-height="991"
     inkscape:window-x="26"
     inkscape:window-y="23"
     inkscape:window-maximized="0"
     inkscape:current-layer="layer1">
    <sodipodi:guide
       position="-201.3055,292"
       orientation="0,1"
       id="guide10522"
       inkscape:label=""
       inkscape:locked="false"
       inkscape:color="rgb(0,0,255)" />
    <sodipodi:guide
       position="-118.4994,284"
       orientation="0,1"
       id="guide10977"
       inkscape:label=""
       inkscape:locked="false"
       inkscape:color="rgb(0,0,255)" />
    <sodipodi:guide
       position="-67.625311,276"
       orientation="0,1"
       id="guide10979"
       inkscape:label=""
       inkscape:locked="false"
       inkscape:color="rgb(0,0,255)" />
  </sodipodi:namedview>
  <defs
     id="defs10331">
    <pattern
       inkscape:collect="always"
       xlink:href="#Strips1_1"
       id="pattern10520"
       patternTransform="matrix(3.1937758e-5,-8.0398808,13.146746,5.2154973e-5,-3.3259733e-5,3.3315178e-5)" />
    <pattern
       inkscape:collect="always"
       patternUnits="userSpaceOnUse"
       width="2"
       height="1"
       patternTransform="translate(0,0) scale(10,10)"
       id="Strips1_1"
       inkscape:stockid="Stripes 1:1"
       inkscape:isstock="true">
      <rect
         style="fill:black;stroke:none"
         x="0"
         y="-0.5"
         width="1"
         height="2"
         id="rect2745" />
    </pattern>
    <pattern
       inkscape:collect="always"
       xlink:href="#Strips1_1-0"
       id="pattern9918"
       patternTransform="matrix(5.2324613,-5.0797779,16.824391,17.330078,-1.9930855,35.867935)" />
    <pattern
       inkscape:collect="always"
       patternUnits="userSpaceOnUse"
       width="2"
       height="1"
       patternTransform="translate(0,0) scale(10,10)"
       id="Strips1_1-0"
       inkscape:stockid="Stripes 1:1"
       inkscape:isstock="true">
      <rect
         style="fill:black;stroke:none"
         x="0"
         y="-0.5"
         width="1"
         height="2"
         id="rect2745-0" />
    </pattern>
  </defs>
  <g
     inkscape:label="Layer 1"
     inkscape:groupmode="layer"
     id="layer1">
    <rect
       style="fill:url(#pattern10520);fill-opacity:1;fill-rule:evenodd;stroke:none;stroke-width:0.2;stroke-miterlimit:4;stroke-dasharray:none;stop-color:#000000"
       id="rect10417"
       width="299.79993"
       height="299.80014"
       x="0.099933378"
       y="0.099933378" />
    <path
       fill="#ffffff"
       fill-rule="nonzero"
       d="M 229.83762,100.27214 C 227.16924,71.909565 202.7123,62.352958 171.8137,59.581573 l 0.081,-39.332952 -23.9424,-0.04654 -0.078,38.296888 c -6.29469,-0.0134 -12.72806,0.0978 -19.12124,0.211939 l 0.084,-38.55114 -23.92848,-0.05009 -0.09,39.322128 c -5.182595,0.0954 -10.274546,0.182159 -15.237508,0.174289 l -0.0026,-0.123019 -33.021173,-0.0805 -0.047,25.57127 c 0,0 17.68072,-0.299448 17.386442,0.0242 9.696245,0.0224 12.841887,5.660184 13.751822,10.519978 l -0.092,44.809116 c 0.668297,0.004 1.541222,0.034 2.530726,0.1731 -0.798695,-5.6e-4 -1.649721,-0.007 -2.529696,-2.9e-4 l -0.136799,62.77374 c -0.430397,3.0506 -2.234407,7.9148 -9.010519,7.91148 0.307098,0.2717 -17.403231,-0.04 -17.403231,-0.04 l -4.817653,28.58376 31.157924,0.064 c 5.798457,0.02 11.503034,0.1303 17.105155,0.1755 l -0.072,39.78152 23.91625,0.053 0.08,-39.36137 c 6.56714,0.1496 12.92039,0.215 19.12624,0.2229 l -0.092,39.17886 23.94342,0.047 0.089,-39.71099 c 40.25746,-2.22548 68.45017,-12.30613 72.02583,-50.09989 2.88708,-30.43047 -11.40124,-44.0404 -34.2375,-49.57488 13.89683,-7.04035 22.60159,-19.47591 20.61335,-40.22932 l -0.009,-0.004 z m -33.67334,84.99224 c -0.049,29.72912 -50.94517,26.24245 -67.17159,26.22403 l 0.1159,-52.70885 c 16.23047,0.038 67.12227,-4.52363 67.05675,26.48457 z m -10.98169,-74.3878 c -0.063,27.04633 -42.5086,23.8026 -56.02443,23.77522 l 0.1015,-47.802634 c 13.51581,0.0277 55.97999,-4.181432 55.92505,24.026924 z"
       id="path827"
       style="clip-rule:evenodd;display:inline;fill:url(#pattern9918);fill-opacity:1;fill-rule:evenodd;stroke:#000000;stroke-width:0.88;stroke-miterlimit:4;stroke-dasharray:none;stroke-opacity:1;image-rendering:optimizeQuality;shape-rendering:geometricPrecision;text-rendering:geometricPrecision" />
  </g>
</svg>
