<?xml version="1.0" encoding="UTF-8" standalone="no"?>
<!-- Created with Inkscape (http://www.inkscape.org/) -->

<svg
   width="300mm"
   height="300mm"
   viewBox="0 0 300 300"
   version="1.1"
   id="svg5"
   inkscape:version="1.1 (c68e22c387, 2021-05-23)"
   sodipodi:docname="TaiwanCryptoTshirt-final.svg"
   xmlns:inkscape="http://www.inkscape.org/namespaces/inkscape"
   xmlns:sodipodi="http://sodipodi.sourceforge.net/DTD/sodipodi-0.dtd"
   xmlns="http://www.w3.org/2000/svg"
   xmlns:svg="http://www.w3.org/2000/svg">
  <sodipodi:namedview
     id="namedview7"
     pagecolor="#000000"
     bordercolor="#666666"
     borderopacity="1.0"
     inkscape:pageshadow="2"
     inkscape:pageopacity="0"
     inkscape:pagecheckerboard="0"
     inkscape:document-units="mm"
     showgrid="false"
     units="cm"
     inkscape:zoom="0.72418018"
     inkscape:cx="612.41665"
     inkscape:cy="597.22706"
     inkscape:window-width="1366"
     inkscape:window-height="731"
     inkscape:window-x="0"
     inkscape:window-y="0"
     inkscape:window-maximized="1"
     inkscape:current-layer="layer2"
     fit-margin-top="0"
     fit-margin-left="0"
     fit-margin-right="0"
     fit-margin-bottom="0" />
  <defs
     id="defs2" />
  <g
     inkscape:groupmode="layer"
     id="layer2"
     inkscape:label="Layer 2">
    <rect
       style="fill:#000000;stroke:#000000;stroke-width:5.62441;stroke-opacity:5.98384e-08"
       id="rect7672"
       width="294.37558"
       height="294.37518"
       x="2.8122034"
       y="2.8122034"
       inkscape:export-filename="/home/yanik/Pictures/For_Projects/Taiwan_Crypto_Tshirts/tct-1st-btc-shirt.png"
       inkscape:export-xdpi="96"
       inkscape:export-ydpi="96" />
  </g>
  <g
     inkscape:label="Layer 1"
     inkscape:groupmode="layer"
     id="layer1">
    <g
       id="g7267"
       transform="matrix(2.4713793,0,0,2.4713463,1606.4637,-117.53289)">
      <path
         style="fill:#ebc9af;stroke-width:0.264583"
         d="m -597.1437,130.15295 c 0.0127,-0.30823 0.0754,-0.37092 0.15985,-0.15985 0.0764,0.19099 0.067,0.4192 -0.0209,0.50712 -0.0879,0.0879 -0.15046,-0.0684 -0.13897,-0.34727 z m 32.56464,-15.98524 c 0,-0.3638 0.0601,-0.51263 0.13345,-0.33073 0.0734,0.1819 0.0734,0.47956 0,0.66146 -0.0734,0.1819 -0.13345,0.0331 -0.13345,-0.33073 z"
         id="path7273" />
      <path
         style="fill:#fd9801;stroke-width:0.264583"
         d="m -541.3375,138.50145 v -1.06625 l -1.38907,0.0741 c -1.38334,0.0738 -1.38906,0.0708 -1.38906,-0.71934 0,-0.51721 0.13816,-0.80252 0.39688,-0.8196 0.21828,-0.0144 0.55129,-0.0443 0.74003,-0.0665 0.2651,-0.0311 0.33415,-0.8866 0.30351,-3.76068 -0.0483,-4.53272 -0.17376,-5.11448 -1.12717,-5.22688 -0.59004,-0.0696 -0.71012,-0.21497 -0.71012,-0.8599 0,-0.76572 0.0199,-0.77617 1.47548,-0.77617 h 1.47548 l -0.0864,-0.99219 c -0.0793,-0.91078 -0.0267,-0.99906 0.64119,-1.07591 0.68818,-0.0792 0.7276,-0.0254 0.7276,0.99219 0,0.97125 0.0643,1.07591 0.66146,1.07591 0.59531,0 0.66146,-0.10584 0.66146,-1.05834 0,-0.99953 0.0441,-1.05833 0.79375,-1.05833 0.74586,0 0.79375,0.0621 0.79375,1.02889 0,0.96393 0.0577,1.03972 0.91457,1.20046 2.038,0.38233 2.74635,3.14627 1.20209,4.69052 -0.93767,0.93768 -0.93281,0.91955 -0.29153,1.08725 0.82526,0.21581 1.41092,1.39501 1.41092,2.8408 0,1.96522 -0.4831,2.53169 -2.80167,3.28517 -0.38336,0.12459 -0.46833,0.35952 -0.38578,1.06667 0.0862,0.73866 0.006,0.93383 -0.43438,1.05204 -0.89081,0.23931 -0.93714,0.19452 -0.93714,-0.90597 0,-0.88194 -0.0882,-1.05833 -0.52917,-1.05833 -0.44097,0 -0.52916,0.17639 -0.52916,1.05833 0,0.99954 -0.0441,1.05834 -0.79375,1.05834 -0.75064,0 -0.79375,-0.0579 -0.79375,-1.06626 z m 3.91822,-3.10093 c 0.2955,-0.25466 0.61508,-0.84666 0.71017,-1.31554 0.24656,-1.21565 -0.74797,-2.19019 -2.23512,-2.19019 h -1.07036 v 1.98438 1.98437 h 1.02903 c 0.59895,0 1.25356,-0.19351 1.56628,-0.46302 z m -0.21406,-5.6224 c 0.63434,-0.63433 0.67909,-1.5203 0.11729,-2.32237 -0.30722,-0.43862 -0.67699,-0.58804 -1.45521,-0.58804 h -1.04333 v 1.71979 1.71979 h 0.92604 c 0.57327,0 1.12763,-0.20159 1.45521,-0.52917 z"
         id="path7271" />
      <path
         style="fill:#ffffff;stroke-width:0.264583"
         d="m -618.83661,141.27245 -0.3036,-1.20568 1.22396,-1.43265 c 1.75995,-2.06004 7.76664,-7.79766 8.16334,-7.79766 0.39125,0 1.21124,0.84174 1.21124,1.24338 0,0.44891 -9.39545,10.39828 -9.81936,10.39828 -0.0946,0 -0.30861,-0.54255 -0.47558,-1.20567 z m -2.66965,-0.35123 c -1.67795,-1.22351 -2.09705,-1.90671 -1.62031,-2.6414 0.37279,-0.57451 3.4724,1.62739 3.4724,2.46673 0,0.34648 0.0723,0.81829 0.1606,1.04848 0.25147,0.65532 -0.1614,0.47608 -2.01269,-0.87381 z m -22.00608,-0.55736 c -2.70707,-1.79309 -2.98275,-6.07887 -0.56329,-8.75692 1.06772,-1.18184 3.23387,-2.0934 4.97458,-2.0934 1.64472,0 3.94557,0.93164 5.16446,2.09113 1.19421,1.13603 2.52732,3.8334 2.78386,5.63278 l 0.17701,1.24162 -1.01995,0.42863 c -1.12819,0.47412 -3.64933,0.68119 -4.94574,0.40622 -0.62355,-0.13226 -0.82105,-0.3079 -0.77521,-0.68945 0.12094,-1.00659 -0.73395,-2.72455 -1.63195,-3.27955 -1.94657,-1.20305 -4.38269,-0.14284 -4.38269,1.90735 0,0.8586 0.85167,2.05085 1.46499,2.05085 0.13214,0 -0.0196,-0.18201 -0.33722,-0.40448 -0.32218,-0.22566 -0.65752,-0.83114 -0.75853,-1.36958 -0.16117,-0.85911 -0.0892,-1.04717 0.65507,-1.71219 1.86651,-1.66773 4.53194,-0.19717 4.53194,2.50033 0,2.64011 -2.81292,3.71875 -5.33733,2.04666 z m 53.30059,0.51317 c -0.71565,-0.27805 -2.17837,-2.53399 -2.18531,-3.37038 -0.0138,-1.66064 2.43966,-4.38636 5.11665,-5.68447 1.42493,-0.69098 3.87892,-1.31563 4.46025,-1.13534 0.18697,0.058 0.65844,0.17492 1.04771,0.25987 0.52027,0.11354 0.92287,0.5516 1.51972,1.65356 0.73767,1.36197 0.78604,1.59533 0.52869,2.55105 -0.65379,2.42796 -5.33642,5.69329 -8.41692,5.86933 -0.81565,0.0466 -1.74751,-0.018 -2.07079,-0.14362 z m 1.87409,-0.91245 c -0.17183,-0.44779 0.56302,-0.56486 0.83036,-0.13229 0.0899,0.14552 0.28259,0.26458 0.42811,0.26458 0.14552,0 0.191,-0.11906 0.10106,-0.26458 -0.33067,-0.53503 0.1736,-0.83838 0.66077,-0.3975 0.4456,0.40326 0.4735,0.39142 0.43757,-0.1857 l -0.0384,-0.61644 -1.58831,0.37738 c -1.90052,0.45155 -1.88294,0.44015 -1.46133,0.94816 0.42973,0.51779 0.82794,0.52183 0.63015,0.006 z m -1.30344,-0.10457 c 0.0805,-0.13027 -0.0486,-0.31167 -0.28684,-0.4031 -0.5151,-0.19766 -0.74319,-0.0347 -0.50065,0.35778 0.21264,0.34405 0.58946,0.36574 0.78749,0.0453 z m 5.20219,-1.73428 c 0.14907,-0.15684 0.23891,-0.13196 0.23891,0.0661 0,0.17463 0.12428,0.3175 0.27618,0.3175 0.1519,0 0.24119,-0.20836 0.19844,-0.46302 -0.0578,-0.34423 0.0796,-0.44604 0.53541,-0.39683 0.51612,0.0557 0.58476,-0.0233 0.43375,-0.49905 -0.1577,-0.49688 -0.10041,-0.54541 0.4738,-0.40129 0.58902,0.14783 0.6403,0.0965 0.52196,-0.52255 -0.1138,-0.59535 -0.0591,-0.66357 0.41248,-0.51392 0.45553,0.14459 0.51993,0.0817 0.39711,-0.38799 -0.13571,-0.51898 -0.2371,-0.47376 -1.36713,0.60982 -0.6713,0.6437 -1.63727,1.44782 -2.14659,1.78692 -0.50932,0.3391 -0.97277,0.65223 -1.02989,0.69584 -0.0571,0.0436 0.0619,0.2793 0.26458,0.52376 0.3421,0.4127 0.375,0.40843 0.46026,-0.0597 0.0505,-0.27733 0.19934,-0.61734 0.33073,-0.75558 z m -1.66176,-0.45006 c 2.12908,-1.01611 4.39775,-3.17841 4.67919,-4.45978 0.16335,-0.74373 0.0972,-0.97392 -0.39439,-1.37197 -0.76232,-0.61729 -1.67113,-0.60407 -3.57813,0.052 -2.72554,0.93772 -5.41559,3.1018 -6.04712,4.86476 -0.74441,2.07806 1.93981,2.53794 5.34045,0.91496 z m -4.5545,0.23614 c -2.07966,-1.56764 4.75507,-6.7003 7.87837,-5.9164 2.04718,0.51381 0.14318,3.59107 -3.30212,5.33693 -1.66977,0.84614 -3.85533,1.12289 -4.57625,0.57947 z m 3.94965,-1.15994 c 1.67595,-0.76727 4.21849,-3.02264 4.03538,-3.57958 -0.0636,-0.1933 -0.54369,-0.38786 -1.06697,-0.43236 -2.04585,-0.17398 -7.10214,3.33637 -6.41264,4.452 0.2925,0.47326 1.89708,0.26825 3.44423,-0.44006 z m 6.42355,-2.49567 c -0.0521,-0.15644 -0.20791,-0.28443 -0.34616,-0.28443 -0.13824,0 -0.29402,0.12799 -0.34616,0.28443 -0.0521,0.15643 0.10362,0.28442 0.34616,0.28442 0.24254,0 0.39831,-0.12799 0.34616,-0.28442 z m 7.19447,5.31151 c -0.29105,-0.29104 -0.53206,-0.79706 -0.53559,-1.12448 -0.007,-0.6296 -0.0694,-1.37362 -0.53433,-6.34734 -0.3099,-3.31541 -0.22677,-4.02367 0.51912,-4.42285 0.51204,-0.27405 11.13082,-1.26093 14.93739,-1.38825 3.26163,-0.1091 3.23212,-0.15818 3.56821,5.93505 0.14229,2.57987 0.17074,5.02065 0.0632,5.42396 -0.26123,0.97972 -1.15414,1.38541 -3.06905,1.39438 -0.87312,0.004 -4.38546,0.24364 -7.8052,0.53233 -3.41974,0.28869 -6.30701,0.52522 -6.41615,0.52563 -0.10914,4e-4 -0.43656,-0.23739 -0.7276,-0.52843 z m 10.18645,-1.57727 c 2.61938,-0.16724 5.17922,-0.38678 5.68855,-0.48788 l 0.92604,-0.18381 -0.0889,-2.37717 c -0.0489,-1.30745 -0.12937,-2.44267 -0.17884,-2.52271 -0.10165,-0.16448 -8.69226,0.36163 -12.81772,0.78498 -1.49233,0.15314 -2.86183,0.27844 -3.04333,0.27844 -0.33121,0 -0.32514,1.14463 0.0209,3.93808 l 0.14367,1.15995 2.29358,-0.1429 c 1.26146,-0.0786 4.43669,-0.27974 7.05606,-0.44698 z m 2.43724,-1.49765 c -0.33314,-0.33314 -0.20049,-1.87724 0.18904,-2.20052 0.20753,-0.17223 0.88993,-0.27611 1.51645,-0.23084 0.97651,0.0706 1.17613,0.18817 1.39845,0.82389 0.39766,1.13709 -0.0597,1.62508 -1.60984,1.71771 -0.71821,0.0429 -1.39055,-0.007 -1.4941,-0.11024 z m -5.74453,-6.44728 c 3.41974,-0.28869 6.96185,-0.52648 7.87136,-0.52843 l 1.65364,-0.004 v -0.96617 -0.96618 l -3.77031,0.18158 c -2.07367,0.0999 -4.1275,0.23255 -4.56406,0.29485 -0.75915,0.10833 -7.29945,0.66217 -7.81962,0.66217 -0.28294,0 -0.34479,1.40469 -0.0738,1.67569 0.22124,0.22125 -0.52585,0.26026 6.70277,-0.34997 z m -42.20104,9.36295 c -2.18607,-0.52292 -4.10271,-1.17077 -4.09268,-1.38337 0.0184,-0.38999 1.31554,-1.63238 1.70432,-1.63238 0.22833,0 1.30668,0.26229 2.39633,0.58287 1.87132,0.55055 1.99565,0.63492 2.24191,1.52136 0.43266,1.55743 0.43922,1.55477 -2.24988,0.91152 z m -12.85149,-1.2598 -1.64229,-1.07926 4.18002,-4.04251 c 2.29901,-2.22338 4.38338,-4.04252 4.63192,-4.04252 0.65363,0 3.2001,1.09878 3.11119,1.34245 -0.0413,0.11333 -2.00194,2.16244 -4.35686,4.55358 l -4.28169,4.34752 z m 15.72258,-0.0721 c -0.27043,-0.86402 -0.23007,-1.07958 0.39636,-2.11666 0.38359,-0.63508 0.7685,-1.15468 0.85534,-1.15468 0.19133,0 0.772,1.23232 0.772,1.63835 0,0.33141 -1.3855,2.59379 -1.5889,2.59451 -0.0735,2.6e-4 -0.26919,-0.43242 -0.4348,-0.96152 z m -2.86548,-1.84579 c -0.87003,-0.21035 -1.67321,-0.47378 -1.78484,-0.5854 -0.11162,-0.11163 0.30257,-0.69147 0.92043,-1.28854 l 1.12338,-1.08557 1.44104,0.37798 c 0.79257,0.20789 1.49165,0.42859 1.5535,0.49045 0.15548,0.15547 -1.25261,2.52284 -1.48434,2.49557 -0.103,-0.0121 -0.89913,-0.19415 -1.76917,-0.40449 z m 14.49044,-2.19076 c -2.77641,-1.79448 -3.45751,-3.2441 -2.61713,-5.57019 0.4178,-1.15643 1.3304,-1.81547 2.65203,-1.9152 1.35932,-0.10257 1.54586,0.45662 0.22291,0.66817 -1.51531,0.24231 -2.04037,0.72306 -1.80667,1.65421 0.24751,0.98617 2.10074,2.76234 3.6797,3.5267 1.3471,0.65212 1.65107,0.95219 1.22889,1.21311 -0.30658,0.18948 -2.24671,-0.86269 -3.73847,-2.02743 -0.81201,-0.63401 -0.98923,-0.68669 -1.12447,-0.33425 -0.23556,0.61383 -0.21613,0.63932 0.43476,0.57041 0.47475,-0.0503 0.58255,0.0575 0.53229,0.53228 -0.0646,0.60974 0.29711,0.80819 0.59486,0.32642 0.23602,-0.3819 0.66387,-0.0522 0.49691,0.38289 -0.0763,0.19891 -0.0116,0.44025 0.14384,0.53632 0.15545,0.0961 0.28262,0.0486 0.28262,-0.10553 0,-0.15411 0.1786,-0.2802 0.39688,-0.2802 0.21828,0 0.39687,0.23109 0.39687,0.51355 0,0.28245 0.12101,0.58834 0.2689,0.67974 0.28535,0.17635 0.10704,0.65879 -0.24349,0.65879 -0.11437,0 -0.92492,-0.4634 -1.80123,-1.02979 z m -1.7818,-3.97424 c -0.30409,-0.49202 -0.63345,-0.31547 -0.48322,0.25902 0.0933,0.3566 0.23301,0.4566 0.40197,0.28763 0.14246,-0.14246 0.17902,-0.38845 0.0813,-0.54665 z m -29.11842,3.75703 c -0.79128,-0.19033 -1.11917,-0.58678 -0.6997,-0.84603 0.49592,-0.3065 2.41949,0.22618 2.41949,0.67001 0,0.36197 -0.66411,0.42995 -1.71979,0.17602 z m 33.58791,-1.55086 c -1.66941,-0.79686 -3.26217,-2.11339 -3.58542,-2.9636 -0.80155,-2.10824 2.90508,-2.16173 6.78732,-0.098 1.62541,0.86405 2.12053,1.31846 1.79323,1.64576 -0.19997,0.19997 -0.6201,0.0454 -1.44099,-0.53017 -2.03332,-1.42567 -5.94954,-2.41655 -6.43653,-1.62857 -0.28835,0.46656 1.22509,1.86511 2.92272,2.70085 0.94231,0.4639 1.76771,0.93151 1.83423,1.03915 0.30267,0.48973 -0.68449,0.4026 -1.87456,-0.16546 z m -32.19885,-1.33831 c -0.87391,-0.55846 -1.35265,-1.42008 -0.78902,-1.42008 0.34775,0 2.17809,1.32894 2.17809,1.58142 0,0.50105 -0.4308,0.45101 -1.38907,-0.16134 z m 17.26407,0.31889 c 0,-0.57117 1.65427,-1.77901 1.98125,-1.44659 0.18161,0.18464 -0.0102,0.52175 -0.59636,1.04823 -0.94895,0.85229 -1.38489,0.97769 -1.38489,0.39836 z m 19.97604,-1.25845 c -0.55235,-0.57031 -3.98187,-2.3326 -4.53937,-2.3326 -0.17654,0 -0.64577,-0.12349 -1.04274,-0.27442 -0.51567,-0.19606 -0.64038,-0.3558 -0.43675,-0.55943 0.76821,-0.76821 7.20949,2.31948 7.20949,3.45594 0,0.45622 -0.61268,0.30724 -1.19063,-0.28949 z m -34.62564,-1.06504 c -0.68885,-0.83149 -0.77874,-1.29026 -0.28282,-1.44336 0.22826,-0.0705 1.70325,1.77953 1.70325,2.1363 0,0.44461 -0.80228,0.0532 -1.42043,-0.69294 z m 12.73628,0.4351 c -0.24352,-0.24352 0.69344,-2.22621 1.05342,-2.22914 0.44652,-0.004 0.41662,0.65124 -0.0729,1.59795 -0.39199,0.75803 -0.67284,0.93882 -0.98048,0.63119 z m -2.66838,-1.08089 c -0.25798,-0.25798 -0.21622,-2.00827 0.0583,-2.44161 0.42172,-0.66582 0.77201,-0.0569 0.62838,1.09228 -0.148,1.1841 -0.38538,1.65059 -0.68663,1.34933 z m -36.14014,-1.39535 c -0.20509,-0.12969 -0.50925,-0.18347 -0.67591,-0.11952 -0.37103,0.14238 -1.96883,-0.91478 -2.36597,-1.56541 -0.34032,-0.55754 0.0638,-0.92827 2.72006,-2.49547 0.9276,-0.54728 1.74231,-1.14037 1.81046,-1.31799 0.22652,-0.59029 -0.74908,-2.97452 -1.66642,-4.07251 -0.53243,-0.63727 -0.90455,-1.37267 -0.90455,-1.7876 0,-0.42479 0.60458,-1.58576 1.52135,-2.92145 0.83675,-1.2191 1.79217,-2.74468 2.12317,-3.39018 0.79784,-1.55597 2.78806,-3.49512 4.42527,-4.31172 0.72761,-0.36292 1.62058,-0.90999 1.98438,-1.21572 1.59617,-1.34137 4.2974,-1.70059 4.98627,-0.66309 0.20347,0.30644 0.54675,0.55715 0.76285,0.55715 0.24668,0 0.33417,0.15308 0.23507,0.41133 -0.0868,0.22622 0.0915,0.74852 0.39617,1.16066 0.80271,1.08572 0.5021,2.28761 -0.64291,2.57044 -0.87604,0.21639 -1.16962,0.27359 -1.66772,0.32497 -0.16274,0.0168 -0.36222,0.52505 -0.44329,1.12947 -0.0811,0.60442 -0.3932,1.43141 -0.69362,1.83775 -0.33497,0.45306 -0.56365,1.19983 -0.59131,1.93089 -0.0492,1.30032 -0.0303,1.32703 3.38371,4.7897 2.03796,2.067 2.56965,3.17079 2.23811,4.64634 -0.32987,1.46814 -0.62989,1.74202 -1.54582,1.41115 -0.72599,-0.26224 -0.79173,-0.49818 -0.4517,-1.621 0.14272,-0.47127 0.0444,-0.64171 -0.48653,-0.84358 -0.36596,-0.13913 -0.7435,-0.37938 -0.83899,-0.53388 -0.40401,-0.65371 -0.56575,-0.16353 -0.55291,1.67575 0.0107,1.53132 0.1219,2.07624 0.5116,2.50681 0.49129,0.54282 0.48842,0.55379 -0.21566,0.82148 -1.09286,0.4155 -1.44788,0.33084 -1.62838,-0.38832 -0.0911,-0.3628 -0.2777,-0.59033 -0.41476,-0.50561 -0.14763,0.0912 -0.11839,0.31164 0.0717,0.54073 0.26237,0.31613 0.21643,0.41404 -0.25174,0.53647 -0.31497,0.0824 -0.57267,0.24104 -0.57267,0.35262 0,0.39502 -1.02217,0.46154 -2.38287,0.15508 -1.24754,-0.28097 -1.41004,-0.4024 -1.71134,-1.27883 -0.18311,-0.53261 -0.41435,-1.8371 -0.51387,-2.89888 -0.22561,-2.40684 -0.35686,-2.85654 -0.83371,-2.85654 -0.27325,0 -0.37905,0.3347 -0.37905,1.19913 0,1.99587 -0.54013,2.90583 -2.02452,3.41074 -0.70552,0.23998 -1.58042,0.6064 -1.94423,0.81427 -0.60219,0.34408 -0.61286,0.37878 -0.11906,0.38732 1.04353,0.0181 1.59429,1.12353 0.71438,1.4339 -0.25467,0.0898 -0.58209,0.22084 -0.72761,0.29114 -0.14552,0.0703 -0.43238,0.0217 -0.63746,-0.10799 z m 10.995,-3.39361 c 0.22866,-1.19142 0.18364,-1.35751 -0.86574,-3.1942 -1.04903,-1.83606 -1.11487,-1.89835 -1.25842,-1.19062 -0.18674,0.92065 -0.0197,4.96762 0.22108,5.35725 0.0967,0.15639 0.51011,0.28434 0.91881,0.28434 0.67623,0 0.76477,-0.11305 0.98427,-1.25677 z m -2.28775,-6.12118 c 0,-0.22669 -0.82849,-2.98684 -0.94777,-3.15757 -0.0488,-0.0699 -0.4111,0.10371 -1.40444,0.6728 -0.0568,0.0325 0.33017,0.53889 0.8599,1.12524 0.52973,0.58635 0.96315,1.18481 0.96315,1.32991 0,0.1451 0.11906,0.26382 0.26458,0.26382 0.14552,0 0.26458,-0.10539 0.26458,-0.2342 z m 16.2535,8.16206 c -0.85494,-0.31627 -1.09104,-0.81277 -1.27401,-2.6792 -0.16538,-1.68699 -0.14262,-1.78656 0.52932,-2.31511 0.38618,-0.30376 0.81653,-0.5523 0.95634,-0.5523 0.13982,0 0.57751,-0.23021 0.97265,-0.51157 0.39514,-0.28137 1.04822,-0.59435 1.45127,-0.69551 0.40306,-0.10116 0.78923,-0.33089 0.85816,-0.51051 0.1874,-0.48834 -1.04843,-3.82163 -1.85879,-5.01357 -0.55227,-0.8123 -0.70324,-1.33832 -0.68345,-2.38125 0.014,-0.73625 -0.0566,-2.3849 -0.15683,-3.66368 -0.15473,-1.97424 -0.0973,-2.59302 0.38077,-4.10104 0.7869,-2.48233 1.47667,-3.492035 3.6029,-5.274075 1.01725,-0.852575 1.98966,-1.831186 2.16092,-2.174691 0.76433,-1.533093 3.30402,-1.413786 4.87392,0.228962 1.50486,1.574697 1.80284,2.969292 0.80336,3.759968 -0.55116,0.436026 -0.93702,0.518726 -1.89699,0.406586 -1.66695,-0.194733 -2.0412,0.0777 -1.64404,1.19666 0.4786,1.34845 0.70477,3.60328 0.39936,3.98144 -0.14769,0.18287 -0.34265,0.80874 -0.43324,1.39082 -0.16349,1.05043 -0.15188,1.06822 1.55376,2.38125 1.7758,1.36704 2.39818,2.05739 3.129,3.47067 0.5472,1.05819 0.14052,1.71031 -1.08841,1.74525 l -0.85979,0.0245 0.60339,0.64184 c 0.51472,0.54753 0.59749,0.90124 0.56323,2.40691 -0.0515,2.26122 -0.29821,5.02821 -0.47372,5.31219 -0.0749,0.12125 0.51686,0.42587 1.3151,0.67695 1.71765,0.54026 2.86164,1.34254 2.24149,1.57196 -0.53725,0.19874 -2.12399,0.27398 -4.43177,0.21014 l -1.91823,-0.0531 v -1.31912 c 0,-0.72551 -0.14107,-1.84656 -0.31349,-2.49121 -0.25887,-0.96791 -0.24304,-1.35144 0.0909,-2.2016 0.49012,-1.2477 0.2877,-1.91935 -0.81513,-2.70463 l -0.81437,-0.57989 -0.0497,0.87792 c -0.0273,0.48285 -0.0742,1.46845 -0.10407,2.19022 -0.0672,1.62229 -0.73313,2.28365 -2.94437,2.92415 -0.84262,0.24407 -1.66834,0.55575 -1.83492,0.69262 -0.16658,0.13687 -0.42257,0.21492 -0.56885,0.17343 -0.14629,-0.0415 -0.27789,0.0139 -0.29244,0.12301 -0.0931,0.69856 0.0274,0.99219 0.4074,0.99219 1.03695,0 1.57657,1.82579 0.55833,1.88909 -0.32742,0.0203 -1.01617,0.0622 -1.53055,0.0931 -0.51438,0.0308 -1.17336,-0.032 -1.46439,-0.1397 z m 11.15407,-12.92931 c -0.23104,-0.2553 -0.42007,-0.60746 -0.42007,-0.78259 0,-0.30091 -1.07914,-0.87032 -1.28843,-0.67985 -0.0538,0.049 0.3621,0.71553 0.9242,1.48127 0.76299,1.0394 1.04512,1.27226 1.11319,0.91879 0.0501,-0.2604 -0.0978,-0.68233 -0.32889,-0.93762 z m 15.05806,11.69122 c -0.29104,-0.0704 -0.78024,-0.35921 -1.0871,-0.64177 -0.30687,-0.28257 -0.99806,-0.63529 -1.53598,-0.78381 -0.53793,-0.14853 -1.0377,-0.42551 -1.11061,-0.6155 -0.0729,-0.18999 0.238,-1.10531 0.69089,-2.03404 0.45289,-0.92873 0.93574,-2.28392 1.07299,-3.01152 0.20008,-1.06067 0.4616,-1.50649 1.31925,-2.24896 l 1.0697,-0.92604 -0.16934,-2.64584 c -0.10055,-1.57101 -0.38279,-3.23698 -0.69478,-4.10104 -0.36152,-1.0012 -0.4745,-1.77585 -0.36215,-2.48297 0.11161,-0.70242 0.0458,-1.16306 -0.20801,-1.45521 -0.47254,-0.54397 -0.80927,-4.923797 -0.4609,-5.994969 0.13995,-0.430361 0.3911,-1.477509 0.55809,-2.326995 0.24742,-1.258627 0.50449,-1.739455 1.38881,-2.59765 0.59684,-0.579222 1.10315,-1.253406 1.12513,-1.498188 0.0798,-0.889332 1.0657,-2.555622 1.7113,-2.892381 0.98156,-0.512 2.84562,-0.172233 3.75284,0.684036 0.40979,0.386779 0.74508,0.852449 0.74508,1.034823 0,0.182374 0.10581,0.331589 0.23514,0.331589 0.12932,0 0.31587,0.430346 0.41454,0.956325 0.14613,0.778925 0.0694,1.07341 -0.41355,1.5875 -0.33657,0.358264 -0.89715,0.631174 -1.29649,0.631174 -1.00515,0 -1.04942,0.145724 -0.42419,1.396357 0.6248,1.249791 0.69948,3.485407 0.18077,5.411749 -0.28384,1.05409 -0.25201,1.18767 0.5981,2.51043 2.15191,3.34832 3.35086,5.8449 3.3513,6.97848 2.5e-4,0.64617 -0.77247,1.43007 -1.40968,1.43007 -0.88467,0 -0.40638,0.47553 1.16275,1.15604 0.88272,0.38282 1.75363,0.69604 1.93537,0.69604 0.18174,0 0.52563,0.40934 0.76421,0.90965 0.39222,0.82249 0.39506,0.98726 0.0296,1.71979 -0.45788,0.91783 -1.46077,1.09808 -2.23105,0.401 -0.41652,-0.37695 -0.46537,-0.33843 -0.62069,0.48947 -0.0927,0.49425 -0.0498,1.72017 0.0953,2.72426 0.14514,1.00409 0.26625,1.92099 0.26913,2.03756 0.008,0.32315 1.74417,0.97869 2.59201,0.97869 0.95096,0 1.72365,0.54958 1.51975,1.08093 -0.10813,0.2818 -0.85918,0.50652 -2.46179,0.73657 -3.83337,0.55027 -3.61942,0.58657 -3.69515,-0.62688 -0.0752,-1.20457 -0.74327,-3.81415 -1.3055,-5.09931 -0.24786,-0.56658 -0.32062,-1.25426 -0.21043,-1.98905 0.16409,-1.09422 0.13286,-1.15532 -1.21581,-2.37878 -0.76132,-0.69064 -1.39577,-1.22432 -1.40988,-1.18595 -0.0141,0.0384 -0.17449,0.33603 -0.3564,0.66148 -0.1819,0.32545 -0.33073,0.9406 -0.33073,1.36699 0,0.50327 -0.22031,0.94547 -0.62792,1.26037 -0.64213,0.49606 -3.34083,4.37194 -3.34083,4.79811 0,0.68349 0.89328,1.85414 1.71315,2.2451 1.78892,0.85308 0.80986,1.83661 -1.31627,1.32227 z m 24.12912,-1.8691 c -0.7976,-0.0728 -1.11239,-0.26623 -1.51779,-0.93286 -0.28132,-0.46259 -0.95897,-1.14498 -1.5059,-1.51642 -0.54693,-0.37143 -1.02619,-0.84859 -1.06501,-1.06034 -0.0388,-0.21176 0.6379,-1.14281 1.50383,-2.069 0.86592,-0.9262 1.90337,-2.33418 2.30544,-3.12885 0.40207,-0.79467 1.09396,-1.69801 1.53754,-2.00743 0.44359,-0.30941 0.90165,-0.68736 1.01791,-0.8399 0.11627,-0.15253 0.13593,-1.46795 0.0437,-2.92316 -0.13489,-2.12809 -0.27127,-2.75742 -0.69697,-3.21606 -0.29109,-0.31363 -0.68567,-1.02521 -0.87685,-1.58129 -0.33392,-0.97132 -0.33325,-1.21517 0.008,-2.78798 0.0985,-0.454524 -0.0493,-1.102769 -0.41471,-1.819101 -0.3978,-0.779751 -0.55127,-1.518847 -0.51265,-2.468833 0.0303,-0.745747 0.0377,-2.010747 0.0164,-2.811112 l -0.0387,-1.455208 -0.48543,0.631304 c -0.68213,0.88713 -0.94327,0.29039 -0.41589,-0.950387 0.23467,-0.552108 0.46916,-1.317321 0.52109,-1.700473 0.0519,-0.383151 0.28201,-1.145572 0.51127,-1.69427 0.22926,-0.548696 0.38551,-1.023016 0.34722,-1.054043 -0.0383,-0.03103 -1.49837,-0.78797 -3.24462,-1.682095 -2.51356,-1.287006 -3.48838,-1.649025 -4.67925,-1.737735 -0.82733,-0.06163 -1.83858,-0.328203 -2.24722,-0.592385 -0.79633,-0.514821 -1.91498,-1.675798 -1.92871,-2.001687 -0.005,-0.10914 0.82093,-0.198437 1.83451,-0.198437 1.66848,0 1.92804,0.07477 2.74278,0.790127 0.49495,0.43457 2.40434,1.575381 4.24308,2.535136 3.33274,1.739562 3.3439,1.743083 3.57391,1.128102 0.14104,-0.377105 0.12999,-0.681105 -0.0284,-0.782061 -0.15645,-0.09969 -0.0788,-0.440532 0.19603,-0.859896 0.44643,-0.681341 0.69659,-0.806749 1.41309,-0.708394 0.19991,0.02744 0.27755,-0.07996 0.17627,-0.24384 -0.12235,-0.19796 0.0282,-0.240369 0.46458,-0.130851 0.41125,0.103219 0.79331,0.01431 1.05257,-0.244943 0.64141,-0.641419 2.57951,-0.27761 2.57951,0.484213 0,0.191875 0.18147,0.499471 0.40327,0.683547 0.22179,0.184076 0.34189,0.396059 0.26687,0.471073 -0.075,0.07501 0.006,0.308184 0.18045,0.518155 0.17426,0.209971 0.35252,0.578113 0.39614,0.818094 0.14273,0.785208 -0.20488,2.156121 -0.54669,2.156121 -0.18388,0 -0.56094,0.16571 -0.83792,0.368244 -0.4393,0.32122 -0.4561,0.425484 -0.13159,0.816497 0.64291,0.774666 2.60115,1.567025 3.01792,1.221138 0.64799,-0.537789 2.40367,0.421181 2.8613,1.562871 0.0875,0.218281 1.47632,1.051719 3.08627,1.852083 2.71813,1.351279 3.32256,1.852487 2.69887,2.237952 -0.13572,0.08388 -1.55786,-0.504403 -3.1603,-1.307302 -1.60244,-0.802899 -3.02075,-1.459816 -3.15181,-1.459816 -0.48256,0 -1.12762,1.008448 -1.53733,2.403407 -0.46084,1.569012 -1.27275,3.093031 -1.93239,3.627253 -0.23234,0.188165 -0.43111,0.42629 -0.44171,0.529167 -0.0106,0.102876 -0.11285,0.865575 -0.22723,1.694875 -0.20543,1.48944 -0.19172,1.53463 1.12355,3.70417 0.73234,1.20798 1.5358,2.94371 1.78547,3.85716 0.24967,0.91345 0.55641,1.72415 0.68165,1.80155 0.12524,0.0774 0.22771,2.03168 0.22771,4.34283 0,3.07204 0.0889,4.25922 0.33072,4.41446 0.59926,0.38477 3.22669,1.13393 3.9908,1.1379 0.94313,0.005 0.82586,0.46653 -0.3149,1.2396 -0.70207,0.47578 -1.10691,0.55184 -2.36085,0.44354 -0.86649,-0.0748 -1.94103,0.01 -2.51362,0.19832 -1.36656,0.4496 -1.63336,0.11637 -1.67076,-2.0867 -0.0224,-1.31833 -0.2103,-2.16244 -0.73014,-3.27964 -0.51198,-1.1003 -0.7,-1.93075 -0.7,-3.09163 0,-0.87298 -0.13381,-1.9224 -0.29735,-2.33206 l -0.29735,-0.74483 -0.61771,1.37577 c -0.35098,0.78171 -0.93662,1.5724 -1.3563,1.83116 -0.40622,0.25047 -1.70593,1.39985 -2.88825,2.55417 -2.14636,2.09554 -2.14923,2.10017 -1.86687,3.02017 0.21778,0.70957 0.51725,1.01522 1.30264,1.32947 1.6794,0.67196 0.81734,1.90567 -1.20282,1.72139 z m 8.2582,-30.911578 c -0.16694,-0.420365 -0.35658,-0.622072 -0.42143,-0.448238 -0.12753,0.341835 0.41206,1.52543 0.6067,1.330794 0.065,-0.06504 -0.0183,-0.462192 -0.18527,-0.882556 z m 15.63456,29.662788 c -0.65485,-0.35065 -1.37623,-0.64293 -1.60308,-0.64951 -0.22685,-0.007 -0.61933,-0.16323 -0.87219,-0.34812 -0.43164,-0.31562 -0.41888,-0.42853 0.20878,-1.84778 0.36768,-0.83139 0.97437,-2.61488 1.3482,-3.96332 0.37383,-1.34843 0.74557,-2.67321 0.8261,-2.94396 0.0805,-0.27075 0.54602,-0.93459 1.03443,-1.4752 0.67053,-0.74219 0.94556,-1.3498 1.12291,-2.4808 0.26336,-1.67942 0.19805,-1.86648 -0.51791,-1.48331 -0.65984,0.35314 -1.14924,0.0584 -0.73394,-0.44198 0.25016,-0.30142 0.20168,-0.37332 -0.25174,-0.37332 -0.74916,0 -0.7765,-1.05166 -0.0324,-1.24625 0.29104,-0.0761 0.53367,-0.15426 0.53916,-0.17367 0.26693,-0.94258 0.20667,-2.44781 -0.15749,-3.933775 -0.34553,-1.409989 -0.46685,-3.091786 -0.48705,-6.75183 -0.0255,-4.625489 0.001,-4.896744 0.52031,-5.317454 0.65938,-0.534194 1.14548,-2.300264 0.88477,-3.214516 -0.3757,-1.317508 -0.25659,-2.274801 0.35395,-2.844683 0.99535,-0.929074 1.83047,-0.979904 3.36058,-0.204541 1.36435,0.691368 1.3735,0.70436 1.30309,1.849366 -0.039,0.634209 0.0686,1.321241 0.23917,1.526736 0.18429,0.222046 0.21356,0.47305 0.0722,0.618688 -0.13086,0.134782 -0.27686,0.602246 -0.32443,1.038809 -0.0793,0.727863 -0.16175,0.787652 -0.99293,0.720286 l -0.90643,-0.07346 0.65126,0.603573 c 0.3582,0.331965 1.04134,1.285336 1.51808,2.118602 0.74537,1.302772 0.88461,1.834565 0.99387,3.795792 0.12147,2.180479 0.16438,2.31134 0.97585,2.976135 1.73445,1.420941 4.48352,4.167952 4.81164,4.808032 0.42024,0.8198 0.11852,1.73869 -0.65112,1.98296 -0.62055,0.19696 -1.32735,-0.25047 -1.32735,-0.84025 0,-0.99414 -2.47329,-3.259376 -3.55874,-3.259376 -0.5913,0 -0.56748,2.186266 0.0292,2.679576 0.24157,0.19972 1.26819,1.61329 2.28137,3.14125 1.77846,2.68208 1.87795,2.91991 2.87771,6.87917 1.34419,5.32331 1.49775,5.77669 2.0582,6.07663 0.58151,0.31121 2.06452,0.37974 2.86069,0.13218 0.48023,-0.14932 0.59532,-0.0831 0.59532,0.34252 0,0.72315 -0.52526,1.09866 -2.12835,1.52154 -0.75045,0.19797 -1.57021,0.54615 -1.8217,0.77374 -0.89928,0.81384 -1.28936,0.51404 -1.8706,-1.43764 -0.32317,-1.08516 -1.05602,-2.58855 -1.77065,-3.63237 -1.10033,-1.60721 -1.23157,-1.96213 -1.34544,-3.63866 -0.11016,-1.62188 -0.24039,-1.99884 -1.02576,-2.96924 -0.49478,-0.61133 -1.23764,-1.35222 -1.65081,-1.64643 l -0.75123,-0.53492 -0.96148,1.61991 c -0.52882,0.89095 -0.96148,1.76461 -0.96148,1.94148 0,0.17686 -0.22225,0.60551 -0.49388,0.95256 -0.27163,0.34704 -0.85828,1.34537 -1.30367,2.21849 -0.44539,0.87313 -1.23344,2.24235 -1.75123,3.04271 l -0.94142,1.45521 1.17136,1.12448 c 0.64425,0.61846 1.41642,1.12448 1.71593,1.12448 0.77569,0 0.68058,0.75513 -0.13411,1.06488 -1.02522,0.38979 -1.71622,0.29765 -3.02548,-0.40342 z"
         id="path7269" />
    </g>
  </g>
</svg>
